<?xml version="1.0" encoding="UTF-8" standalone="no"?>
<!DOCTYPE svg PUBLIC "-//W3C//DTD SVG 1.1//EN" "http://www.w3.org/Graphics/SVG/1.1/DTD/svg11.dtd">
<svg width="100%" height="100%" viewBox="0 0 581 422" version="1.1" xmlns="http://www.w3.org/2000/svg" xmlns:xlink="http://www.w3.org/1999/xlink" xml:space="preserve" xmlns:serif="http://www.serif.com/" style="fill-rule:evenodd;clip-rule:evenodd;stroke-linejoin:round;stroke-miterlimit:2;">
    <g transform="matrix(1,0,0,1,-964.618,-329.042)">
        <g transform="matrix(0.789487,0,0,0.573064,270.492,166.364)">
            <path d="M1613.85,304.243C1613.85,293.202 1607.34,284.238 1599.33,284.238L893.995,284.238C885.981,284.238 879.474,293.202 879.474,304.243L879.474,998.607C879.474,1009.65 885.981,1018.61 893.995,1018.61L1599.33,1018.61C1607.34,1018.61 1613.85,1009.65 1613.85,998.607L1613.85,304.243Z"/>
            <path d="M1614.11,304.243C1614.11,298.622 1612.46,293.531 1609.78,289.845C1607.1,286.159 1603.41,283.878 1599.33,283.878C1599.33,283.878 893.995,283.98 893.995,283.98C889.937,283.981 886.26,286.251 883.598,289.919C880.936,293.587 879.289,298.652 879.29,304.243C879.29,304.243 879.343,998.607 879.343,998.607C879.343,1004.18 880.985,1009.22 883.637,1012.88C886.289,1016.53 889.952,1018.79 893.995,1018.79C893.995,1018.79 1599.33,1018.69 1599.33,1018.69C1603.35,1018.69 1606.99,1016.44 1609.63,1012.8C1612.27,1009.17 1613.9,1004.15 1613.9,998.607C1613.9,998.607 1613.85,304.243 1613.85,304.243L1614.11,304.243ZM1613.85,304.243L1613.8,998.607C1613.8,1004.11 1612.17,1009.09 1609.56,1012.7C1606.94,1016.31 1603.32,1018.54 1599.33,1018.54L893.995,1018.44C890.024,1018.43 886.426,1016.21 883.822,1012.62C881.217,1009.03 879.605,1004.08 879.606,998.607C879.606,998.607 879.659,304.243 879.659,304.243C879.659,298.793 881.265,293.855 883.861,290.281C886.456,286.707 890.04,284.495 893.995,284.495C893.995,284.495 1599.33,284.597 1599.33,284.597C1603.26,284.598 1606.83,286.799 1609.41,290.355C1611.99,293.911 1613.59,298.822 1613.59,304.243L1613.85,304.243Z" style="fill:rgb(252,247,187);"/>
        </g>
        <g transform="matrix(0.573064,0,0,0.573064,509.204,208.875)">
            <path d="M795.062,243.684L1806.78,243.684L1806.78,230.06C1806.78,219.019 1797.82,210.055 1786.78,210.055L815.068,210.055C804.026,210.055 795.062,219.019 795.062,230.06L795.062,243.684Z" style="fill:rgb(53,54,103);"/>
        </g>
        <g transform="matrix(0.573064,0,0,0.573064,509.62,210.459)">
            <circle cx="820.849" cy="225.05" r="8.484" style="fill:rgb(253,5,37);"/>
        </g>
        <g transform="matrix(0.573064,0,0,0.573064,524.429,210.416)">
            <circle cx="820.849" cy="225.05" r="8.484" style="fill:rgb(253,196,5);"/>
        </g>
        <g transform="matrix(0.573064,0,0,0.573064,539.191,210.598)">
            <circle cx="820.849" cy="225.05" r="8.484" style="fill:rgb(45,253,5);"/>
        </g>
    </g>
</svg>
