<?xml version="1.0" encoding="UTF-8" standalone="no"?>
<!DOCTYPE svg PUBLIC "-//W3C//DTD SVG 1.1//EN" "http://www.w3.org/Graphics/SVG/1.1/DTD/svg11.dtd">
<svg width="100%" height="100%" viewBox="0 0 335 335" version="1.1" xmlns="http://www.w3.org/2000/svg" xmlns:xlink="http://www.w3.org/1999/xlink" xml:space="preserve" xmlns:serif="http://www.serif.com/" style="fill-rule:evenodd;clip-rule:evenodd;stroke-linecap:round;stroke-linejoin:round;stroke-miterlimit:1.5;">
    <g transform="matrix(1,0,0,1,-238.314,-344.71)">
        <g transform="matrix(1,0,0,1,-50.0401,173.216)">
            <circle cx="455.796" cy="338.937" r="167.442" style="fill:rgb(237,237,237);"/>
            <path d="M456.337,171.496C548.509,171.795 623.238,246.708 623.238,338.937C623.238,431.35 548.21,506.378 455.796,506.378C363.382,506.378 288.354,431.35 288.354,338.937C288.354,246.523 363.382,171.495 455.796,171.495M455.796,171.911C501.895,171.892 543.665,190.592 573.915,220.818C604.174,251.054 622.908,292.823 622.926,338.937C622.944,385.065 604.233,426.86 573.988,457.129C543.734,487.407 501.938,506.152 455.796,506.17C409.639,506.189 367.818,487.466 337.53,457.202C307.233,426.929 288.476,385.108 288.458,338.937C288.44,292.751 307.174,250.904 337.457,220.597C367.749,190.281 409.596,171.513 455.796,171.495L455.796,171.911Z" style="fill:rgb(252,247,187);"/>
        </g>
        <g transform="matrix(0.620185,0,0,0.620185,17.2086,234.041)">
            <g transform="matrix(1.16899,0,0,1.15369,-110.102,-129.142)">
                <path d="M580.443,573.18C580.443,573.18 578.559,613.225 572.434,641.021C566.31,668.817 696.809,665.99 694.453,642.905C694.062,639.076 674.34,588.113 683.146,567.527" style="fill:rgb(255,222,207);"/>
            </g>
            <g transform="matrix(1,0,0,1,-1.28144,1.28144)">
                <path d="M735.923,463.584L741.503,435.103C741.503,435.103 744.67,428.251 748.275,430.799C753.046,434.173 754.031,435.954 753.247,445.154C752.187,457.607 747.438,469.305 744.323,481.758C743.057,486.815 734.021,510.763 730.453,508.954C726.885,507.145 725.726,495.733 725.726,495.733L735.923,463.584Z" style="fill:rgb(255,222,207);"/>
            </g>
            <g transform="matrix(-1,0,0,1,1265.74,11.4576)">
                <path d="M735.923,463.584L741.503,435.103C741.503,435.103 744.67,428.251 748.275,430.799C753.046,434.173 754.031,435.954 753.247,445.154C752.187,457.607 747.438,469.305 744.323,481.758C743.057,486.815 734.021,510.763 730.453,508.954C726.885,507.145 725.726,495.733 725.726,495.733L735.923,463.584Z" style="fill:rgb(255,222,207);"/>
            </g>
            <g transform="matrix(0.704846,0,0,0.772908,154.331,69.483)">
                <path d="M675.866,305.969C760.301,305.969 828.851,381.767 828.851,475.128C828.851,568.49 741.502,669.958 675.866,669.958C610.231,669.958 522.882,568.49 522.882,475.128C522.882,381.767 591.432,305.969 675.866,305.969Z" style="fill:rgb(255,222,207);"/>
            </g>
            <path d="M726.094,496.1L726.191,496.1C718.412,553.188 669.028,609.824 631.154,609.824C593.932,609.824 545.592,555.119 536.555,499.04C557.327,547.787 597.875,559.032 630.712,559.032C664.212,559.032 705.735,546.179 726.094,496.1Z"/>
            <path d="M617.862,467.496C617.862,467.496 610.21,458.978 597.965,452.858C587.778,447.766 582.41,448.926 570.714,449.66C568.345,449.809 553.841,446.82 552.626,441.104C548.64,422.352 565.142,378.269 588.376,353.195C529.464,331.041 521.349,453.815 525.495,466.985C529.08,478.371 532.902,488.402 536.557,499.046C537.589,504.057 552.313,526.831 552.313,526.831L580.682,551.685L622.509,526.933C622.509,526.933 610.488,523.01 610.462,517.589C610.418,508.254 624.807,494.18 621.328,475.851C620.023,468.974 617.862,467.496 617.862,467.496Z" style="fill:rgb(255,212,193);"/>
            <g transform="matrix(0.509526,6.24941e-18,-6.24941e-18,-0.458495,308.459,806.279)">
                <path d="M726.094,537.247C726.094,537.247 734.269,609.417 631.154,609.824C529.813,610.225 536.555,540.187 536.555,540.187C536.555,540.187 597.875,559.032 630.712,559.032C664.212,559.032 726.094,537.247 726.094,537.247Z"/>
            </g>
            <path d="M736.292,462.406C736.292,462.406 751.199,400.792 738.501,353.312C725.803,305.832 692.228,281.871 629.959,282.755C567.691,283.638 538.791,313.807 524.289,362.146C509.382,411.834 525.945,466.822 525.945,466.822C525.945,466.822 537.87,327.253 576.186,365.458C599.685,388.89 672.947,379.608 693.119,366.231C716.064,351.015 734.636,434.801 736.292,462.406Z" style="stroke:black;stroke-width:1.61px;"/>
            <g transform="matrix(1,0,0,1.33336,-1.58549,-124.338)">
                <path d="M641.32,443.383C641.32,443.383 638.547,436.148 640.055,433.664C642.417,429.775 658.054,422.533 676.145,420.046C694.236,417.558 710.835,421.381 714.72,425.565C716.613,427.603 712.109,434.485 712.109,434.485C712.109,434.485 692.117,429.244 677.163,431.595C662.336,433.926 641.32,443.383 641.32,443.383Z" style="stroke:black;stroke-width:1.37px;"/>
            </g>
            <g transform="matrix(-1,0,0,1.33336,1259.11,-124.338)">
                <path d="M641.32,443.383C641.32,443.383 638.547,436.148 640.055,433.664C642.417,429.775 658.054,422.533 676.145,420.046C694.236,417.558 710.835,421.381 714.72,425.565C716.613,427.603 712.109,434.485 712.109,434.485C712.109,434.485 692.117,429.244 677.163,431.595C662.336,433.926 641.32,443.383 641.32,443.383Z" style="stroke:black;stroke-width:1.37px;"/>
            </g>
            <g transform="matrix(0.535013,-0.844844,0.844844,0.535013,20.4579,652.589)">
                <path d="M564.544,335.457C545.613,336.686 523.891,343.834 523.891,343.834C523.891,343.834 537.652,281.286 563.599,287.321C570.723,288.978 572.501,334.94 564.544,335.457Z" style="stroke:black;stroke-width:1.61px;"/>
            </g>
            <g transform="matrix(-0.535013,-0.844844,-0.844844,0.535013,1246.62,652.589)">
                <path d="M564.544,335.457C545.613,336.686 523.891,343.834 523.891,343.834C523.891,343.834 537.652,281.286 563.599,287.321C570.723,288.978 572.501,334.94 564.544,335.457Z" style="stroke:black;stroke-width:1.61px;"/>
            </g>
            <g transform="matrix(0.433905,0.900959,-0.900959,0.433905,640.836,-334.403)">
                <path d="M564.544,335.457C545.613,336.686 523.891,343.834 523.891,343.834C523.891,343.834 537.652,281.286 563.599,287.321C570.723,288.978 572.501,334.94 564.544,335.457Z" style="stroke:black;stroke-width:1.61px;"/>
            </g>
            <g transform="matrix(0.3081,0.951354,-0.951354,0.3081,770.749,-332.781)">
                <path d="M564.544,335.457C545.613,336.686 523.891,343.834 523.891,343.834C523.891,343.834 537.652,281.286 563.599,287.321C570.723,288.978 572.501,334.94 564.544,335.457Z" style="stroke:black;stroke-width:1.61px;"/>
            </g>
            <g transform="matrix(-0.333642,0.9427,0.9427,0.333642,558.916,-327.751)">
                <path d="M564.544,335.457C545.613,336.686 523.891,343.834 523.891,343.834C523.891,343.834 537.652,281.286 563.599,287.321C570.723,288.978 572.501,334.94 564.544,335.457Z" style="stroke:black;stroke-width:1.61px;"/>
            </g>
            <g transform="matrix(0.865077,0.501639,-0.501639,0.865077,246.156,-229.851)">
                <path d="M564.544,335.457C545.613,336.686 523.891,343.834 523.891,343.834C523.891,343.834 537.652,281.286 563.599,287.321C570.723,288.978 572.501,334.94 564.544,335.457Z" style="stroke:black;stroke-width:1.61px;"/>
            </g>
            <g transform="matrix(-0.865077,0.501639,0.501639,0.865077,1025.32,-230.339)">
                <path d="M564.544,335.457C545.613,336.686 523.891,343.834 523.891,343.834C523.891,343.834 537.652,281.286 563.599,287.321C570.723,288.978 572.501,334.94 564.544,335.457Z" style="stroke:black;stroke-width:1.61px;"/>
            </g>
            <g transform="matrix(1.90787,0,0,1.47051,-606.751,-215.645)">
                <ellipse cx="673.617" cy="474.756" rx="9.571" ry="9.34" style="fill:rgb(255,238,228);"/>
            </g>
            <g transform="matrix(1.90787,0,0,1.47051,-706.017,-215.738)">
                <ellipse cx="673.617" cy="474.756" rx="9.571" ry="9.34" style="fill:rgb(255,238,228);"/>
            </g>
        </g>
    </g>
</svg>
